<svg xmlns="http://www.w3.org/2000/svg" viewBox="21.0 -1513.0 15521.8 1537.0" width="1212" height="120" role="img" aria-label="VIP LEASING">
  <g transform="scale(1,-1)" fill="#000">
    <path d="M553.0 0.0 21.0 1490.0H309.0L576.0 709.0Q613.0 594.0 657.5 447.0Q702.0 300.0 757.0 112.0H686.0Q740.0 300.0 783.0 447.0Q826.0 594.0 862.0 709.0L1121.0 1490.0H1406.0L884.0 0.0Z"/>
    <path d="M2149.6800000000003 1490.0V0.0H1883.68V1490.0Z"/>
    <path d="M2735.36 0.0V1490.0H3302.36Q3468.36 1490.0 3587.36 1430.5Q3706.36 1371.0 3769.86 1263.0Q3833.36 1155.0 3833.36 1010.0Q3833.36 864.0 3768.36 756.0Q3703.36 648.0 3583.36 588.5Q3463.36 529.0 3297.36 529.0H2888.36V753.0H3282.36Q3374.36 753.0 3438.36 785.0Q3502.36 817.0 3536.36 874.5Q3570.36 932.0 3570.36 1010.0Q3570.36 1088.0 3536.36 1145.0Q3502.36 1202.0 3438.36 1233.5Q3374.36 1265.0 3282.36 1265.0H3001.36V0.0Z"/>
    <path d="M5154.72 0.0V1490.0H5420.72V228.0H6103.72V0.0Z"/>
    <path d="M6615.400000000001 0.0V1490.0H7636.400000000001V1262.0H6881.400000000001V867.0H7580.400000000001V643.0H6881.400000000001V228.0H7637.400000000001V0.0Z"/>
    <path d="M8064.080000000001 0.0 8593.080000000002 1490.0H8927.080000000002L9457.080000000002 0.0H9166.080000000002L8904.080000000002 781.0Q8865.080000000002 904.0 8822.580000000002 1046.0Q8780.080000000002 1188.0 8725.080000000002 1379.0H8795.080000000002Q8741.080000000002 1188.0 8698.080000000002 1046.0Q8655.080000000002 904.0 8615.080000000002 781.0L8350.080000000002 0.0ZM8377.080000000002 359.0V576.0H9145.080000000002V359.0Z"/>
    <path d="M10470.76 -24.0Q10289.76 -24.0 10158.26 35.5Q10026.76 95.0 9955.76 207.0Q9884.76 319.0 9883.76 475.0H10143.76Q10145.76 388.0 10186.26 326.5Q10226.76 265.0 10299.76 232.5Q10372.76 200.0 10471.76 200.0Q10564.76 200.0 10633.26 226.5Q10701.76 253.0 10740.26 301.5Q10778.76 350.0 10778.76 415.0Q10778.76 469.0 10749.76 508.0Q10720.76 547.0 10659.76 575.5Q10598.76 604.0 10503.76 626.0L10341.76 664.0Q10126.76 714.0 10021.26 813.5Q9915.76 913.0 9915.76 1070.0Q9915.76 1204.0 9984.76 1303.0Q10053.76 1402.0 10177.26 1457.5Q10300.76 1513.0 10462.76 1513.0Q10627.76 1513.0 10748.76 1456.0Q10869.76 1399.0 10937.26 1295.0Q11004.76 1191.0 11008.76 1048.0H10755.76Q10747.76 1161.0 10668.76 1225.0Q10589.76 1289.0 10460.76 1289.0Q10378.76 1289.0 10315.26 1262.5Q10251.76 1236.0 10216.26 1190.0Q10180.76 1144.0 10180.76 1084.0Q10180.76 1031.0 10210.76 993.5Q10240.76 956.0 10300.26 929.5Q10359.76 903.0 10448.76 882.0L10596.76 847.0Q10705.76 822.0 10788.76 785.5Q10871.76 749.0 10928.26 698.0Q10984.76 647.0 11013.76 580.0Q11042.76 513.0 11042.76 428.0Q11042.76 291.0 10973.76 189.0Q10904.76 87.0 10776.26 31.5Q10647.76 -24.0 10470.76 -24.0Z"/>
    <path d="M11843.44 1490.0V0.0H11577.44V1490.0Z"/>
    <path d="M12429.12 0.0V1490.0H12718.12L13240.12 661.0Q13264.12 624.0 13297.62 565.5Q13331.12 507.0 13368.12 439.0Q13405.12 371.0 13440.12 302.0L13411.12 252.0Q13407.12 319.0 13403.62 403.0Q13400.12 487.0 13398.62 563.5Q13397.12 640.0 13397.12 685.0V1490.0H13663.12V0.0H13373.12L12903.12 746.0Q12874.12 793.0 12834.12 860.0Q12794.12 927.0 12745.12 1014.0Q12696.12 1101.0 12639.12 1205.0L12680.12 1235.0Q12686.12 1124.0 12689.62 1028.5Q12693.12 933.0 12694.62 861.0Q12696.12 789.0 12696.12 747.0V0.0Z"/>
    <path d="M14896.800000000001 -23.0Q14690.800000000001 -23.0 14533.800000000001 73.0Q14376.800000000001 169.0 14288.300000000001 341.5Q14199.800000000001 514.0 14199.800000000001 744.0Q14199.800000000001 979.0 14289.800000000001 1152.0Q14379.800000000001 1325.0 14536.800000000001 1419.0Q14693.800000000001 1513.0 14892.800000000001 1513.0Q15017.800000000001 1513.0 15126.800000000001 1476.0Q15235.800000000001 1439.0 15320.800000000001 1370.5Q15405.800000000001 1302.0 15461.300000000001 1208.5Q15516.800000000001 1115.0 15532.800000000001 1000.0H15262.800000000001Q15247.800000000001 1063.0 15215.800000000001 1113.5Q15183.800000000001 1164.0 15136.800000000001 1200.5Q15089.800000000001 1237.0 15029.800000000001 1256.0Q14969.800000000001 1275.0 14898.800000000001 1275.0Q14767.800000000001 1275.0 14670.800000000001 1210.5Q14573.800000000001 1146.0 14520.300000000001 1027.0Q14466.800000000001 908.0 14466.800000000001 744.0Q14466.800000000001 582.0 14520.300000000001 463.0Q14573.800000000001 344.0 14671.800000000001 279.5Q14769.800000000001 215.0 14901.800000000001 215.0Q15013.800000000001 215.0 15099.800000000001 259.5Q15185.800000000001 304.0 15234.300000000001 385.0Q15282.800000000001 466.0 15282.800000000001 573.0L15349.800000000001 567.0H14936.800000000001V777.0H15542.800000000001V597.0Q15542.800000000001 413.0 15459.300000000001 273.5Q15375.800000000001 134.0 15230.300000000001 55.5Q15084.800000000001 -23.0 14896.800000000001 -23.0Z"/>
  </g>
</svg>
